<svg xmlns="http://www.w3.org/2000/svg" viewBox="0 0 725.73 176.26"><g id="Layer_2" data-name="Layer 2"><g id="Layer_1-2" data-name="Layer 1"><path d="M96.29,117.11A203.41,203.41,0,0,1,60,113.82a189.11,189.11,0,0,1-36.32,3.29C9.57,117.11,0,115.18,0,111.25c0-3.08,5.43-5,15.94-5,15,0,29.32,3.81,45.09,6.8,23-4.88,35.78-13.59,42.27-19.24,6.93-6,14.75-16.11,23.38-27.39a66,66,0,0,1-15.86,1.84c-18,0-30.43-8.21-30.43-23.81,0-19.06,21.33-34.28,46.72-35C100.14,11,81.25,28.72,81.25,46c0,12.95,10.85,21.88,29.57,21.88A64.33,64.33,0,0,0,127,66c9.75-12.65,20.52-26.76,32.35-38.34,4.88-4.7,26.29-27,39.2-27,4.4,0,5.08,3.17,5.08,5.26,0,13.93-35.73,47.78-72.7,59.62-9.87,13-20.68,25.56-31.33,32.27-4.36,2.74-15.47,10.64-37.61,15.39a186.52,186.52,0,0,0,34.32,3.55c42.91,0,68.13-25.91,68.13-39.75,0-3.85-1.92-6.12-5.6-6.12-9.83,0-24.15,14-29.4,27.27,4.7-13.5,19.4-27.61,29.4-27.61,4.87,0,5.94,3.68,5.94,6.46C164.76,91.21,139.2,117.11,96.29,117.11Zm-72.65-.34A191.21,191.21,0,0,0,59,113.65c-17.22-3.08-30.34-7.06-43-7.06-10,0-15.56,1.76-15.56,4.66C.38,114.84,9.83,116.77,23.64,116.77ZM131.25,65.09c36.55-11.88,72-45.6,72-59.15,0-1.92-.55-4.91-4.74-4.91-12.7,0-33.64,21.88-40.22,29C150.66,38.21,141.38,51.8,131.25,65.09Z"/><path d="M165,117.11c-5,0-5.17-4.88-5.17-7.53,0-5.94,3.59-14.18,9.19-21.19,1.93-2.35,4.15-4.88,6.58-7.4-10.94,10.34-29.36,24.19-46.28,30.52,15.81-6.24,36.28-21.24,47.57-31.84,10.47-10.65,24-21,31.54-21,3.67,0,4.53,2.65,4.53,5.09,0,6.41-4.7,13.71-10.77,21.37C220.53,84,234,71.46,238,67.74c-3.67,4.19-18,17-35.94,17.53-.51.64-1,1.28-1.54,1.92L199,89.11C187.15,103.9,173.05,117.11,165,117.11ZM174.63,86c-7.82,9.57-14,19.28-14,26.07,0,3,1.45,4.75,4.4,4.75,7.91,0,22-13.21,33.51-27.66C203.1,83.39,212.46,70,212.46,63c0-2.48-1.33-4.06-4-4.06C203.61,59,192.37,64,174.63,86Z"/><path d="M208.09,112c0-5.56,4-12.91,13.12-24.11l48.85-60.39h3.29l-8.89,11h26.28l8.89-11h3.3l-8.89,11h21.49v.34H293.74l-39.62,49c-8.42,10.35-15.6,20.3-15.6,26.07,0,1.76,1.41,2.83,3.33,2.83,9.74,0,37.7-28.55,46.76-38.51-11,12.56-37.14,38.85-46.76,38.85-3.5,0-4.19-3-4.19-4.7,0-6,4.06-13.38,13.12-24.54l6-7.43c-9.19,10.6-35.3,36.67-44.54,36.67C208.77,117.11,208.09,114.16,208.09,112Zm49.53-32.53,32.83-40.6H264.16l-39.62,49c-8.42,10.35-15.64,20.3-15.64,25.65a3.06,3.06,0,0,0,3.37,3.25C221.38,116.77,248,90.31,257.62,79.45Z"/><path d="M265.69,112.41c0-7,8.59-17.19,16.28-26.63L303.69,59h3.5l-21.71,26.8c-14,17.35-19.11,23.63-19.11,27.82,0,1.58.94,3.17,3.51,3.17,10.51,0,38-28.55,46.93-38.51l-.9,1c-10.3,11.93-35.86,37.83-46,37.83C265.69,117.11,265.69,113.09,265.69,112.41ZM326.77,28a2.29,2.29,0,0,1,4.57,0,2.29,2.29,0,1,1-4.57,0Z"/><path d="M297.74,109.93c0-5.43,2.09-12.44,7.86-19.58,8.77-10.68,30.31-31.54,39.07-31.54,2.61,0,2.61,1.92,2.61,2.48,0,8.08-29.45,24.27-36.59,27.48-.47.6-.94,1.15-1.41,1.75-6.28,7.87-11,16.46-10.86,20.82,0,3.67,2.14,5.43,5.77,5.43,14.71,0,39.45-27.83,49.92-38.51l-.89,1c-10.77,11.41-34.66,37.83-49,37.83C298.25,117.11,297.74,112.58,297.74,109.93Zm13-21.2c5.43-3,25.9-13.38,34.28-23.77.86-1.06,1.88-2.65,1.88-3.89,0-1-.55-1.92-2.22-1.92C337.87,59.15,325.05,71.12,310.73,88.73Z"/><path d="M428.06,129.89c0-6.12-4-13.12-17.69-13.12-7.61,9.44-15.22,18.33-22.74,26.07-11.54,12.09-35.17,33.42-54.45,33.42-5.6,0-9.79-2.65-9.79-8.63,0-23.6,52.79-50,84.59-51.16,13.46-18,28.59-39.41,44.23-58.81a24.11,24.11,0,0,1-8.89-18.81c0-20.81,24-38,64.41-38,8.85,0,17.52-.17,23.12-.42L535.73,0V.51l-5.6.34c-19.79,2-36.08,12.27-52.53,30.14-7.35,8-15.09,17.61-23.08,28a38.27,38.27,0,0,0,9.79,4.7,31,31,0,0,1-10-4.44c-14,18.2-28.81,38.76-43.64,57.18,13,.17,18.12,6.24,18.12,14.71,0,11.28-13.63,22.9-26.5,26.15C414.34,153.82,428.06,141.68,428.06,129.89Zm-41.2,13c6.33-6.93,13.29-15.9,20.86-26-32.14,1.24-84,27.95-84,50.82,0,5.81,4.19,8.29,9.45,8.29C352.41,175.92,376.35,154,386.86,142.84ZM452.47,57.4a347.49,347.49,0,0,1,23.21-26.24C492.94,13.89,508.46,3.38,527.56.81c-5,.26-11.45.39-19.83.39-40.86,0-64.07,17.52-64.07,37.65A23.54,23.54,0,0,0,452.47,57.4Z"/><path d="M496.21,63.73c0,7-5.6,15-12.44,23.46l-1.54,1.92c-11.84,14.79-25.94,28-34,28-5,0-5.17-4.88-5.17-7.53,0-5.94,3.59-14.18,9.19-21.19,1.92-2.35,4.15-4.88,6.58-7.4-10.94,10.34-29.36,24.19-46.29,30.52,15.82-6.24,36.29-21.24,47.57-31.84,10.47-10.65,24-21,31.55-21C495.35,58.64,496.21,61.29,496.21,63.73ZM457.87,86c-7.82,9.57-14,19.28-14,26.07,0,3,1.45,4.75,4.4,4.75,7.87,0,21.84-13.13,33.51-27.66C486.38,83.39,495.69,70,495.69,63c0-2.44-1.28-4.06-4-4.06C486.8,59,475.61,64,457.87,86Z"/><path d="M490.47,112.28c0-5.3,4.4-11.93,14.53-24.41L514.71,76c7.26-8.89,7.86-10.43,7.86-12.22,0-2.14-2.14-3-3.68-4.54-1.36,2.78-11.45,15.9-19.74,15.9-3.51,0-4.87-2.35-4.66-5h.3c-.13,2,.68,4.66,4.36,4.66,7.73,0,17.48-12,19.62-15.64a5.36,5.36,0,0,1-1.46-3.76A6.47,6.47,0,0,1,519,51.16h3.12a9.54,9.54,0,0,0-2.61,5.9c0,4.06,4,3.89,4,8.33,0,2.27-.47,4.53-5.39,10.56l-9.65,11.92c-8.25,10.22-17.44,20.6-17.23,25.65a3,3,0,0,0,3.08,3.25c9.7,0,37-28.85,46.16-38.68l-.86,1c-10.21,11.29-35.81,38-45.3,38C491.2,117.11,490.47,114.2,490.47,112.28Z"/><path d="M521.58,110.1c0-6.63,3.5-14.53,11-23.81C541,76,561.16,58.64,570.94,58.64c4,0,4.36,3,4.36,4.57,0,3.59-2.13,9.49-7.82,17.27L631.85.85h3.33l-70.35,87c-8.8,10.86-16.11,20.65-16.11,26,0,1.84.94,2.91,2.78,2.91,10.51,0,38-28.55,46.93-38.51-11,12.86-36.76,38.85-46.93,38.85-3.12,0-3.68-3-3.68-4.53,0-5.47,3.34-11.59,10.69-21-11,13-23.81,25.52-31.84,25.52C521.88,117.11,521.58,111.85,521.58,110.1Zm41.67-24.49C568,80,575,69.67,575,63.21c0-2.65-1.19-4.23-4-4.23-4.53,0-15.77,4.06-34.32,27-7.86,9.62-14.19,19.45-14.19,26.07,0,2.86,1.54,4.75,4.24,4.75C535.17,116.77,549.57,102.28,563.25,85.61Z"/><path d="M579.87,109.58c0-5.94,3.67-14.53,9.78-22,9.66-11.92,29.62-28.89,39.41-28.89,4,0,4.36,3,4.36,4.57,0,3.59-2.14,9.53-7.86,17.31L642.91,59h3.29l-21.67,26.8c-12.27,15-18.93,23.63-18.93,27.82a3,3,0,0,0,3.16,3.17c9.62,0,28.38-23.3,33.47-28.9h.51c-5.26,5.6-24,29.24-34,29.24-3.85,0-3.85-4-3.85-4.7,0-6.63,7.06-14.92,14.83-24.62-10.89,13-25.68,29.32-34.79,29.32C580,117.11,579.87,112,579.87,109.58Zm41.5-24c4.7-5.6,11.71-15.94,11.71-22.4,0-2.65-1.2-4.23-4-4.23-4.53,0-15.38,3.68-34.32,27-7.86,9.62-14,19.28-14,26.07,0,3,1.36,4.75,4.18,4.75C593.72,116.77,608.42,100.82,621.37,85.61Z"/><path d="M706.46,58.64c3.5,0,3.5,3.33,3.5,4,0,5.81-4,10.68-16.11,25.21-8.76,10.52-18.55,20.3-18.55,25.73,0,1.93,1.24,3.17,3.5,3.17,10.6,0,38-28.55,46.93-38.51l-.9,1c-10.13,11.58-35.73,37.83-46,37.83-4,0-4.19-3.68-4.19-4.7,0-5.82,4-10.52,15.56-24.54,8.76-10.51,19.11-21.54,19.11-26.24A2.56,2.56,0,0,0,706.46,59c-12.06,0-48.6,38.72-52.66,43.08l-11.92,14.71h-3.47L660.08,90c10.35-13,20.3-23.81,20.3-28.34A2.44,2.44,0,0,0,677.61,59c-9.41,0-29.84,23.29-34.88,28.89h-.51c5.08-5.6,25.68-29.23,35.39-29.23,3.5,0,3.5,3.33,3.5,4.57,0,7-8.59,15.73-17.52,26.76l-8.85,10.9C659.27,96,694.19,58.64,706.46,58.64Z"/></g></g></svg>